<?xml version="1.0" encoding="utf-8"?><!DOCTYPE svg PUBLIC "-//W3C//DTD SVG 1.1//EN" "http://www.w3.org/Graphics/SVG/1.1/DTD/svg11.dtd"><svg xmlns="http://www.w3.org/2000/svg" xmlns:xlink="http://www.w3.org/1999/xlink"><defs><svg viewBox="0 0 512 512" id="social-facebook"><path d="M288 192v-38.1c0-17.2 3.8-25.9 30.5-25.9H352V64h-55.9c-68.5 0-91.1 31.4-91.1 85.3V192h-45v64h45v192h83V256h56.4l7.6-64h-64z"/></svg><svg viewBox="0 0 512 512" id="social-googleplus"><path d="M242.1 275.6l-18.2-13.7-.1-.1c-5.8-4.6-10-8.3-10-14.7 0-7 5-11.8 10.9-17.4l.5-.4c20-15.2 44.7-34.3 44.7-74.6 0-26.9-11.9-44.7-23.3-57.7h13L320 64H186.5c-25.3 0-62.7 3.2-94.6 28.6l-.1.3C70 110.9 57 137.4 57 163.5c0 21.2 8.7 42.2 23.9 57.4 21.4 21.6 48.3 26.1 67.1 26.1 1.5 0 3 0 4.5-.1-.8 3-1.2 6.3-1.2 10.3 0 10.9 3.6 19.3 8.1 26.2-24 1.9-58.1 6.5-84.9 22.3-39.4 22.7-42.5 56-42.5 65.6 0 38.2 35.7 76.8 115.5 76.8 91.6 0 139.5-49.8 139.5-99 0-37.1-22.8-55.6-44.9-73.5zM116.7 139.9c0-13.4 3-23.5 9.3-30.9 6.5-7.9 18.2-13.1 29-13.1 19.9 0 32.9 15 40.4 27.6 9.2 15.5 14.9 36.1 14.9 53.6 0 4.9 0 20-10.2 29.8-7 6.7-18.7 11.4-28.6 11.4-20.5 0-33.5-14.7-40.7-27-10.4-17.8-14.1-38.2-14.1-51.4zM237.8 368c0 27.4-25.2 44.5-65.8 44.5-48.1 0-80.3-20.6-80.3-51.3 0-26.1 21.5-36.8 37.8-42.5 18.9-6.1 44.3-7.3 50.1-7.3 3.9 0 6.1 0 8.7.2 36.6 25.2 49.5 36.1 49.5 56.4z"/><path d="M402 142V64h-34v78h-80v34h80v81h34v-81h78v-34"/></svg><svg viewBox="0 0 512 512" id="social-instagram"><path fill="#231F20" d="M448.5 112c0-26.233-21.267-47.5-47.5-47.5H112c-26.233 0-47.5 21.267-47.5 47.5v289c0 26.233 21.267 47.5 47.5 47.5h289c26.233 0 47.5-21.267 47.5-47.5V112zM257 175.833c44.182 0 80 35.816 80 80s-35.818 80-80 80-80-35.816-80-80 35.818-80 80-80zM416.5 160.5c0 8.836-7.163 16-16 16h-48c-8.837 0-16-7.164-16-16v-48c0-8.836 7.163-16 16-16h48c8.837 0 16 7.164 16 16v48zm-15 256h-288c-8.822 0-17-8.178-17-17v-175h53.072c-3.008 10-4.572 20.647-4.572 31.583 0 29.917 11.65 57.917 32.805 79.07s49.28 32.742 79.195 32.742 58.04-11.68 79.195-32.835S369 286.016 369 256.1c0-10.937-1.563-21.6-4.572-31.6H416.5v175c0 8.822-6.178 17-15 17z"/></svg><svg viewBox="0 0 512 512" id="social-pinterest"><path d="M256 32C132.3 32 32 132.3 32 256c0 91.7 55.2 170.5 134.1 205.2-.6-15.6-.1-34.4 3.9-51.4 4.3-18.2 28.8-122.1 28.8-122.1s-7.2-14.3-7.2-35.4c0-33.2 19.2-58 43.2-58 20.4 0 30.2 15.3 30.2 33.6 0 20.5-13.1 51.1-19.8 79.5-5.6 23.8 11.9 43.1 35.4 43.1 42.4 0 71-54.5 71-119.1 0-49.1-33.1-85.8-93.2-85.8-67.9 0-110.3 50.7-110.3 107.3 0 19.5 5.8 33.3 14.8 43.9 4.1 4.9 4.7 6.9 3.2 12.5-1.1 4.1-3.5 14-4.6 18-1.5 5.7-6.1 7.7-11.2 5.6-31.3-12.8-45.9-47-45.9-85.6 0-63.6 53.7-139.9 160.1-139.9 85.5 0 141.8 61.9 141.8 128.3 0 87.9-48.9 153.5-120.9 153.5-24.2 0-46.9-13.1-54.7-27.9 0 0-13 51.6-15.8 61.6-4.7 17.3-14 34.5-22.5 48 20.1 5.9 41.4 9.2 63.5 9.2 123.7 0 224-100.3 224-224C480 132.3 379.7 32 256 32z"/></svg><svg viewBox="0 0 512 512" id="social-tumblr"><path d="M321.2 396.3c-11.8 0-22.4-2.8-31.5-8.3-6.9-4.1-11.5-9.6-14-16.4-2.6-6.9-3.6-22.3-3.6-46.4V224h96v-64h-96V48h-61.9c-2.7 21.5-7.5 44.7-14.5 58.6-7 13.9-14 25.8-25.6 35.7-11.6 9.9-25.6 17.9-41.9 23.3V224h48v140.4c0 19 2 33.5 5.9 43.5 4 10 11.1 19.5 21.4 28.4 10.3 8.9 22.8 15.7 37.3 20.5 14.6 4.8 31.4 7.2 50.4 7.2 16.7 0 30.3-1.7 44.7-5.1 14.4-3.4 30.5-9.3 48.2-17.6v-65.6c-20.9 13.7-41.8 20.6-62.9 20.6z"/></svg><svg viewBox="0 0 512 512" id="social-twitter"><path d="M492 109.5c-17.4 7.7-36 12.9-55.6 15.3 20-12 35.4-31 42.6-53.6-18.7 11.1-39.4 19.2-61.5 23.5C399.8 75.8 374.6 64 346.8 64c-53.5 0-96.8 43.4-96.8 96.9 0 7.6.8 15 2.5 22.1-80.5-4-151.9-42.6-199.6-101.3-8.3 14.3-13.1 31-13.1 48.7 0 33.6 17.2 63.3 43.2 80.7-16-.4-31-4.8-44-12.1v1.2c0 47 33.4 86.1 77.7 95-8.1 2.2-16.7 3.4-25.5 3.4-6.2 0-12.3-.6-18.2-1.8 12.3 38.5 48.1 66.5 90.5 67.3-33.1 26-74.9 41.5-120.3 41.5-7.8 0-15.5-.5-23.1-1.4C62.8 432 113.7 448 168.3 448 346.6 448 444 300.3 444 172.2c0-4.2-.1-8.4-.3-12.5C462.6 146 479 129 492 109.5z"/></svg><svg viewBox="0 0 512 512" id="social-youtube"><path d="M508.6 148.8c0-45-33.1-81.2-74-81.2C379.2 65 322.7 64 265 64h-18c-57.6 0-114.2 1-169.6 3.6C36.6 67.6 3.5 104 3.5 149 1 184.6-.1 220.2 0 255.8c-.1 35.6 1 71.2 3.4 106.9 0 45 33.1 81.5 73.9 81.5 58.2 2.7 117.9 3.9 178.6 3.8 60.8.2 120.3-1 178.6-3.8 40.9 0 74-36.5 74-81.5 2.4-35.7 3.5-71.3 3.4-107 .2-35.6-.9-71.2-3.3-106.9zM207 353.9V157.4l145 98.2-145 98.3z"/></svg></defs></svg>