<?xml version="1.0" encoding="utf-8"?>
<!-- Generator: Adobe Illustrator 19.1.0, SVG Export Plug-In . SVG Version: 6.00 Build 0)  -->
<svg version="1.1" id="Layer_1" xmlns="http://www.w3.org/2000/svg" xmlns:xlink="http://www.w3.org/1999/xlink" x="0px" y="0px"
	 viewBox="-383 145 512 512" style="enable-background:new -383 145 512 512;" xml:space="preserve">
<path d="M-350.2,480.4c0,5.5,2,9.7,6,12.6c4,2.8,8.3,3.8,12.9,3c4.3-0.8,7.3-2.4,9-4.6c1.7-2.2,2.6-5.9,2.6-11v-60.3
	c0-4.3-1.5-7.9-4.5-10.9s-6.6-4.5-10.9-4.5c-4.2,0-7.7,1.5-10.7,4.5s-4.5,6.6-4.5,10.9V480.4L-350.2,480.4z M-302.5,506.1
	c0,4,1.4,7,4.3,9s6.5,3,10.9,3c4.6,0,8.3-1,11.1-3c2.8-2,4.3-5,4.3-9V365.7c0-4.2-1.5-7.7-4.5-10.7c-3-3-6.6-4.5-10.9-4.5
	c-4.2,0-7.7,1.5-10.7,4.5c-3,3-4.5,6.5-4.5,10.7V506.1z M-254.9,512.8c0,4,1.5,7,4.4,9c2.9,2,6.6,3,11.2,3c4.4,0,8.1-1,10.9-3
	s4.3-5,4.3-9V384.6c0-4.3-1.5-8-4.5-11c-3-3-6.5-4.6-10.7-4.6c-4.3,0-8,1.5-11,4.6c-3,3-4.6,6.7-4.6,11V512.8z M-207.1,513.4
	c0,7.6,5.1,11.4,15.4,11.4c10.2,0,15.4-3.8,15.4-11.4V305.6c0-11.6-3.5-18.2-10.6-19.7c-4.6-1.1-9.1,0.2-13.5,3.9s-6.6,9-6.6,15.8
	V513.4z M-158.5,519.4v-226c0-7.2,2.1-11.5,6.4-12.9c9.3-2.2,18.5-3.3,27.6-3.3c21.2,0,40.9,5,59.2,15c18.3,10,33.1,23.6,44.4,40.8
	C-9.5,350.2-3,369.2-1.2,390c8.4-3.6,17.5-5.4,27-5.4c19.4,0,36,6.9,49.8,20.6c13.8,13.7,20.7,30.2,20.7,49.4
	c0,19.4-6.9,35.9-20.7,49.7C61.8,518,45.3,524.8,26,524.8l-180.8-0.2c-1.2-0.4-2.2-1.2-2.8-2.3
	C-158.2,521.2-158.5,520.3-158.5,519.4L-158.5,519.4z"/>
</svg>
