<?xml version="1.0" encoding="utf-8"?>
<!-- Generator: Adobe Illustrator 19.1.0, SVG Export Plug-In . SVG Version: 6.00 Build 0)  -->
<svg version="1.1" id="Layer_1" xmlns="http://www.w3.org/2000/svg" xmlns:xlink="http://www.w3.org/1999/xlink" x="0px" y="0px"
	 viewBox="-383 145 512 512" style="enable-background:new -383 145 512 512;" xml:space="preserve">
<g>
	<g>
		<path d="M-350.6,393.9c1.2-73.3,68.6-137.5,141.9-135.1c35.1-1.6,68.1,13.7,95,35.1c-11.5,13-23.4,25.6-36.1,37.4
			c-32.3-22.4-78.3-28.7-110.7-2.9c-46.3,32-48.4,107.5-3.9,142c43.3,39.3,125.1,19.8,137-40.4c-27.1-0.4-54.3,0-81.4-0.9
			c-0.1-16.2-0.1-32.3-0.1-48.5c45.3-0.1,90.6-0.2,136,0.1c2.7,38-2.3,78.5-25.7,110c-35.4,49.8-106.5,64.3-161.9,43
			C-315.9,512.6-355.3,453.8-350.6,393.9z"/>
		<path d="M15.7,339.8c13.5,0,26.9,0,40.4,0c0.1,13.5,0.1,27.1,0.3,40.6c13.5,0.1,27.1,0.1,40.6,0.3c0,13.5,0,27,0,40.4
			c-13.5,0.1-27,0.2-40.6,0.3c-0.1,13.6-0.2,27.1-0.3,40.6c-13.5,0-27,0-40.5,0c-0.1-13.5-0.1-27-0.3-40.6
			c-13.5-0.1-27.1-0.3-40.6-0.4c0-13.5,0-26.9,0-40.4c13.5-0.1,27-0.2,40.6-0.3C15.4,366.8,15.5,353.3,15.7,339.8z"/>
	</g>
</g>
</svg>
