<?xml version="1.0" encoding="utf-8"?>
<!-- Generator: Adobe Illustrator 19.1.0, SVG Export Plug-In . SVG Version: 6.00 Build 0)  -->
<svg version="1.1" id="Layer_1" xmlns="http://www.w3.org/2000/svg" xmlns:xlink="http://www.w3.org/1999/xlink" x="0px" y="0px"
	 viewBox="-383 145 512 512" style="enable-background:new -383 145 512 512;" xml:space="preserve">
<g>
	<g>
		<path d="M-314.7,391.4c1.7-98.9,92.6-185.5,191.5-182.2C-75.8,207-31.3,227.6,5,256.6c-15.5,17.6-31.5,34.6-48.7,50.4
			c-43.6-30.2-105.7-38.8-149.3-3.9c-62.4,43.2-65.3,145.1-5.2,191.6c58.4,53,168.8,26.7,184.9-54.5c-36.6-0.6-73.2,0-109.8-1.2
			c-0.1-21.8-0.2-43.6-0.1-65.5c61.1-0.2,122.3-0.3,183.5,0.2c3.7,51.3-3.1,106-34.7,148.4c-47.8,67.2-143.6,86.8-218.4,58
			C-267.9,551.5-321,472.2-314.7,391.4z"/>
	</g>
</g>
</svg>
